PathFileType	4	(X/Y/Z)	C:\Users\WrightLab\Desktop\Jo\P1.2Trial16.trc
DataRate	CameraRate	NumFrames	NumMarkers	Units	OrigDataRate	OrigDataStartFrame	OrigNumFrames
100.00	100.00	       58	19	mm	100.00	406	       463
Frame#	Time	Headset_Front			Headset_Back			Headset_Left			Headset_Right			Left_Shoulder			Right_Shoulder			Sternum			C7			Left Elbow			Right Elbow			Left Wrist			Right Wrist			Left ASIS			Right ASIS			S2			Left Knee			Right Knee			Left Ankle			Right Ankle			
		X1	Y1	Z1	X2	Y2	Z2	X3	Y3	Z3	X4	Y4	Z4	X5	Y5	Z5	X6	Y6	Z6	X7	Y7	Z7	X8	Y8	Z8	X9	Y9	Z9	X10	Y10	Z10	X11	Y11	Z11	X12	Y12	Z12	X13	Y13	Z13	X14	Y14	Z14	X15	Y15	Z15	X16	Y16	Z16	X17	Y17	Z17	X18	Y18	Z18	X19	Y19	Z19	

406	4.050																																		-89.66986	838.55060	2143.37964																						
407	4.060																																		-84.62331	837.96906	2155.13940																						
408	4.070																																		-79.29276	837.32355	2169.59448																						
409	4.080																																		-75.72058	836.76819	2180.26001																						
410	4.090																																		-71.50881	834.83569	2192.03223																						
411	4.100																																		-67.92472	833.48077	2204.58740																						
412	4.110																																		-65.86820	832.10925	2213.85889																						
413	4.120																																		-62.95277	829.96033	2226.88208																						
414	4.130																																		-61.64375	828.50946	2236.41772																						
415	4.140																																		-60.49262	826.47467	2244.87134																						
416	4.150																																		-58.82371	825.27924	2256.29492																						
417	4.160																																		-57.73648	823.33856	2264.83789																						
418	4.170																																		-56.53705	821.53107	2272.89575																						
419	4.180																																		-55.03497	820.50763	2281.05176																						
420	4.190																																		-53.49215	818.73468	2288.70068																						
421	4.200																																		-52.98185	817.46118	2293.93823																						
422	4.210																																		-51.95234	816.51453	2301.47583																						
423	4.220																																		-50.76028	815.31415	2308.46143																						
424	4.230																																		-49.91465	815.71832	2316.23877																						
425	4.240																																		-49.27293	815.14349	2321.70166																						
426	4.250																																		-48.74636	815.27631	2326.82202																						
427	4.260																																		-48.61621	815.85919	2332.42871																						
428	4.270																																		-48.15978	815.85571	2337.68335																						
429	4.280																																		-47.38519	816.01465	2344.10059																						
430	4.290																																		-47.74730	815.79944	2346.09351																						
431	4.300																																		-46.85125	816.36896	2352.61230																						
432	4.310																																		-46.94700	816.94885	2356.55566																						
433	4.320																																		-45.61776	816.70929	2361.78540																						
434	4.330																																		-46.00135	815.71204	2363.17188																						
435	4.340																																		-45.38210	817.59662	2366.94434																						
436	4.350																																		-44.64821	818.10278	2370.80835																						
437	4.360																																		-44.39950	818.74750	2372.81201																						
438	4.370																																		-43.33108	819.18066	2374.92090																						
439	4.380																																		-42.10474	819.59906	2377.28662																						
440	4.390																																		-41.92774	820.27527	2378.85327																						
441	4.400																																		-40.83409	820.96790	2381.51782																						
442	4.410																																		-39.81699	822.22150	2384.68799																						
443	4.420																																		-39.70016	822.32904	2385.34058																						
444	4.430																																		-39.56715	822.21716	2386.39404																						
445	4.440																																		-39.04593	823.05975	2390.05273																						
446	4.450																																		-38.38605	822.69153	2392.92065																						
447	4.460																																		-38.73915	822.24652	2394.64648																						
448	4.470																																		-38.38954	821.87366	2398.29492																						
449	4.480																																		-38.69827	821.52539	2399.62329																						
450	4.490																																		-38.73760	821.77679	2404.16553																						
451	4.500																																		-39.97553	821.21039	2406.31006																						
452	4.510																																		-41.07903	820.45313	2408.55615																						
453	4.520																																		-42.07323	820.85474	2411.69629																						
454	4.530																																		-42.56037	820.91150	2415.97363																						
455	4.540																																		-43.59242	820.66748	2419.06616																						
456	4.550																																		-44.62538	821.24921	2423.70117																						
457	4.560																																		-45.89988	820.36816	2426.11011																						
458	4.570																																		-47.49630	819.44818	2428.82617																						
459	4.580																																		-49.07707	818.31653	2431.67505																						
460	4.590																																		-51.07027	817.22870	2434.75513																						
461	4.600																																		-52.94051	816.13129	2437.73389																						
462	4.610																																		-55.06005	814.84668	2441.09839																						
463	4.620																																		-57.09959	813.53827	2444.41602																						
